<?xml version="1.0" encoding="UTF-8" standalone="no"?>
<svg width="25px" height="25px" viewBox="0 0 25 25" version="1.1" xmlns="http://www.w3.org/2000/svg" xmlns:xlink="http://www.w3.org/1999/xlink">
    <!-- Generator: Sketch 50.2 (55047) - http://www.bohemiancoding.com/sketch -->
    <title>Shape</title>
    <desc>Created with Sketch.</desc>
    <defs></defs>
    <g id="Page-1" stroke="none" stroke-width="1" fill="none" fill-rule="evenodd">
        <g id="Icon-24px" fill="#FFFFFF">
            <path d="M21.4295334,13.676 C21.4775334,13.292 21.5135334,12.908 21.5135334,12.5 C21.5135334,12.092 21.4775334,11.708 21.4295334,11.324 L23.9615334,9.344 C24.1895334,9.164 24.2495334,8.84 24.1055334,8.576 L21.7055334,4.424 C21.5615334,4.16 21.2375334,4.064 20.9735334,4.16 L17.9855334,5.36 C17.3615334,4.88 16.6895334,4.484 15.9575334,4.184 L15.5015334,1.004 C15.4655334,0.716 15.2135334,0.5 14.9135334,0.5 L10.1135334,0.5 C9.81353342,0.5 9.56153342,0.716 9.52553342,1.004 L9.06953342,4.184 C8.33753342,4.484 7.66553342,4.892 7.04153342,5.36 L4.05353342,4.16 C3.77753342,4.052 3.46553342,4.16 3.32153342,4.424 L0.92153342,8.576 C0.76553342,8.84 0.83753342,9.164 1.06553342,9.344 L3.59753342,11.324 C3.54953342,11.708 3.51353342,12.104 3.51353342,12.5 C3.51353342,12.896 3.54953342,13.292 3.59753342,13.676 L1.06553342,15.656 C0.83753342,15.836 0.77753342,16.16 0.92153342,16.424 L3.32153342,20.576 C3.46553342,20.84 3.78953342,20.936 4.05353342,20.84 L7.04153342,19.64 C7.66553342,20.12 8.33753342,20.516 9.06953342,20.816 L9.52553342,23.996 C9.56153342,24.284 9.81353342,24.5 10.1135334,24.5 L14.9135334,24.5 C15.2135334,24.5 15.4655334,24.284 15.5015334,23.996 L15.9575334,20.816 C16.6895334,20.516 17.3615334,20.108 17.9855334,19.64 L20.9735334,20.84 C21.2495334,20.948 21.5615334,20.84 21.7055334,20.576 L24.1055334,16.424 C24.2495334,16.16 24.1895334,15.836 23.9615334,15.656 L21.4295334,13.676 L21.4295334,13.676 Z M12.5135334,16.7 C10.1975334,16.7 8.31353342,14.816 8.31353342,12.5 C8.31353342,10.184 10.1975334,8.3 12.5135334,8.3 C14.8295334,8.3 16.7135334,10.184 16.7135334,12.5 C16.7135334,14.816 14.8295334,16.7 12.5135334,16.7 L12.5135334,16.7 Z" id="Shape"></path>
        </g>
    </g>
</svg>