<?xml version="1.0" encoding="UTF-8" standalone="no"?>
<svg width="24px" height="24px" viewBox="0 0 24 24" version="1.1" xmlns="http://www.w3.org/2000/svg" xmlns:xlink="http://www.w3.org/1999/xlink">
    <!-- Generator: Sketch 50.2 (55047) - http://www.bohemiancoding.com/sketch -->
    <title>ic_exit_to_app</title>
    <desc>Created with Sketch.</desc>
    <defs></defs>
    <g id="Page-1" stroke="none" stroke-width="1" fill="none" fill-rule="evenodd">
        <g id="ic_exit_to_app" transform="translate(-3.000000, -3.000000)">
            <g id="Icon-24px">
                <polygon id="Shape" points="0 0 30 0 30 30 0 30"></polygon>
                <path d="M12.6125,19.4875 L14.375,21.25 L20.625,15 L14.375,8.75 L12.6125,10.5125 L15.8375,13.75 L3.75,13.75 L3.75,16.25 L15.8375,16.25 L12.6125,19.4875 L12.6125,19.4875 Z M23.75,3.75 L6.25,3.75 C4.8625,3.75 3.75,4.875 3.75,6.25 L3.75,11.25 L6.25,11.25 L6.25,6.25 L23.75,6.25 L23.75,23.75 L6.25,23.75 L6.25,18.75 L3.75,18.75 L3.75,23.75 C3.75,25.125 4.8625,26.25 6.25,26.25 L23.75,26.25 C25.125,26.25 26.25,25.125 26.25,23.75 L26.25,6.25 C26.25,4.875 25.125,3.75 23.75,3.75 L23.75,3.75 Z" id="Shape" fill="#FFFFFF"></path>
            </g>
        </g>
    </g>
</svg>