<?xml version="1.0" encoding="UTF-8"?>
<svg width="221px" height="20px" viewBox="0 0 221 20" version="1.1" xmlns="http://www.w3.org/2000/svg" xmlns:xlink="http://www.w3.org/1999/xlink">
    <!-- Generator: Sketch 53.2 (72643) - https://sketchapp.com -->
    <title>ModaTrendy42</title>
    <desc>Created with Sketch.</desc>
    <g id="Page-1" stroke="none" stroke-width="1" fill="none" fill-rule="evenodd">
        <path d="M0.5,0.625 L3.35,0.625 L8.5,5.475 L8.5,9.25 L3.65,4.675 L3.65,15 L0.5,15 L0.5,0.625 Z M17.725,15 L14.575,15 L14.575,4.675 L9.725,9.25 L9.725,5.475 L14.9,0.625 L17.725,0.625 L17.725,15 Z M20.163988,5.725 L23.088988,4 L27.038988,4 L27.038988,6.35 L23.288988,6.35 L23.288988,12.3 L27.038988,12.3 L27.038988,14.975 L23.088988,14.975 L20.163988,13.25 L20.163988,5.725 Z M34.838988,13.25 L31.913988,14.975 L27.938988,14.975 L27.938988,12.3 L31.713988,12.3 L31.713988,6.35 L27.938988,6.35 L27.938988,4 L31.913988,4 L34.838988,5.725 L34.838988,13.25 Z M53.6779761,15 L46.8779761,15 L46.8779761,12.375 L50.5279761,12.375 L50.5279761,6.375 L46.7779761,6.375 L46.7779761,4.05 L50.5279761,4.05 L50.5279761,0.6 L53.6779761,0.6 L53.6779761,15 Z M38.7779761,5.775 L41.6279761,4.05 L45.6779761,4.05 L45.6779761,6.375 L41.8279761,6.375 L41.8279761,12.375 L45.5779761,12.375 L45.5779761,15 L41.6279761,15 L38.7779761,13.275 L38.7779761,5.775 Z M58.1169641,10.125 L60.9669641,8.4 L65.0669641,8.4 L65.0669641,10.325 L61.2919641,10.325 L61.2919641,12.375 L65.0669641,12.375 L65.0669641,15.025 L60.9669641,15.025 L58.1169641,13.3 L58.1169641,10.125 Z M58.1169641,7.475 L58.1169641,5.75 L60.9669641,4 L65.0669641,4 L65.0669641,6.35 L61.2919641,6.35 L61.2919641,7.475 L58.1169641,7.475 Z M73.1169641,15.025 L66.2669641,15.025 L66.2669641,12.375 L69.9419641,12.375 L69.9419641,10.325 L66.1669641,10.325 L66.1669641,8.4 L69.9419641,8.4 L69.9419641,6.35 L66.1669641,6.35 L66.1669641,4 L70.2669641,4 L73.1169641,5.75 L73.1169641,15.025 Z M93.2809521,3.45 L86.0809521,3.45 L86.0809521,15 L82.6309521,15 L82.6309521,3.45 L76.0559521,3.45 L76.0559521,0.625 L93.2809521,0.625 L93.2809521,3.45 Z M94.3199402,4.075 L97.4449402,4.075 L97.4449402,5.15 L101.19494,4.075 L101.19494,6.4 L97.4449402,6.4 L97.4449402,15 L94.3199402,15 L94.3199402,4.075 Z M105.56994,7.475 L102.31994,7.475 L102.31994,4.075 L105.56994,5.45 L105.56994,7.475 Z M122.858928,8.575 L119.908928,10.3 L115.908928,10.3 L115.908928,8.375 L119.683928,8.375 L119.683928,6.325 L115.908928,6.325 L115.908928,3.975 L119.908928,3.975 L122.858928,5.725 L122.858928,8.575 Z M122.858928,11.525 L122.858928,13.275 L119.908928,15 L115.908928,15 L115.908928,12.35 L119.583928,12.35 L119.583928,11.525 L122.858928,11.525 Z M107.758928,5.725 L110.708928,3.975 L114.683928,3.975 L114.683928,6.325 L110.908928,6.325 L110.908928,8.375 L114.683928,8.375 L114.683928,10.3 L110.908928,10.3 L110.908928,12.35 L114.683928,12.35 L114.683928,15 L110.708928,15 L107.758928,13.275 L107.758928,5.725 Z M127.297916,4 L130.472916,4 L130.472916,5.075 L134.172916,4 L134.172916,6.35 L130.472916,6.35 L130.472916,14.975 L127.297916,14.975 L127.297916,4 Z M142.272916,14.975 L139.147916,14.975 L139.147916,6.35 L135.372916,6.35 L135.372916,4 L139.322916,4 L142.272916,5.725 L142.272916,14.975 Z M161.361904,15 L154.561904,15 L154.561904,12.375 L158.211904,12.375 L158.211904,6.375 L154.461904,6.375 L154.461904,4.05 L158.211904,4.05 L158.211904,0.6 L161.361904,0.6 L161.361904,15 Z M146.461904,5.775 L149.311904,4.05 L153.361904,4.05 L153.361904,6.375 L149.511904,6.375 L149.511904,12.375 L153.261904,12.375 L153.261904,15 L149.311904,15 L146.461904,13.275 L146.461904,5.775 Z M163.800892,4.05 L166.950892,4.05 L166.950892,11.55 L170.700892,11.55 L170.700892,13.55 L166.675892,13.55 L163.800892,11.825 L163.800892,4.05 Z M166.950892,16.125 L166.950892,17.275 L170.700892,17.275 L170.700892,19.875 L166.675892,19.875 L163.800892,18.15 L163.800892,16.125 L166.950892,16.125 Z M178.750892,4.05 L178.750892,18.15 L175.600892,19.875 L171.850892,19.875 L171.850892,17.275 L175.600892,17.275 L175.600892,13.55 L171.850892,13.55 L171.850892,11.55 L175.600892,11.55 L175.600892,4.05 L178.750892,4.05 Z M198.96488,14.975 L196.03988,14.975 L196.03988,9.3 L190.86488,9.3 L190.86488,6.375 L196.03988,6.375 L196.03988,0.6 L198.96488,0.6 L198.96488,14.975 Z M186.61488,6.375 L189.63988,6.375 L189.63988,9.3 L181.43988,9.3 L186.61488,0.7 L190.03988,0.7 L186.61488,6.375 Z M202.903868,8.1 L205.753868,6.375 L210.928868,6.375 L210.928868,9.2 L205.953868,9.2 L205.953868,12.05 L210.828868,12.05 L210.828868,15 L202.903868,15 L202.903868,8.1 Z M202.903868,5.15 L202.903868,2.3 L205.753868,0.575 L210.928868,0.575 L210.928868,3.425 L206.053868,3.425 L206.053868,5.15 L202.903868,5.15 Z M220.178868,15 L212.153868,15 L212.153868,12.05 L220.178868,12.05 L220.178868,15 Z M216.928868,9.2 L212.053868,9.2 L212.053868,6.375 L216.928868,6.375 L216.928868,3.425 L212.053868,3.425 L212.053868,0.575 L217.228868,0.575 L220.178868,2.3 L220.178868,7.475 L216.928868,9.2 Z" id="ModaTrendy42" fill="#FFFFFF" fill-rule="nonzero"></path>
    </g>
</svg>